<?xml version="1.0" standalone="no"?>
<!DOCTYPE svg PUBLIC "-//W3C//DTD SVG 20010904//EN"
 "http://www.w3.org/TR/2001/REC-SVG-20010904/DTD/svg10.dtd">
<svg version="1.0" xmlns="http://www.w3.org/2000/svg"
 width="144.000000pt" height="144.000000pt" viewBox="0 0 144.000000 144.000000"
 preserveAspectRatio="xMidYMid meet">
<metadata>
Created by potrace 1.14, written by Peter Selinger 2001-2017
</metadata>
<g transform="translate(0.000000,144.000000) scale(0.100000,-0.100000)"
fill="#000000" stroke="none">
<path d="M568 1429 c-2 -5 -22 -14 -46 -20 -112 -25 -267 -125 -356 -229 -57
-66 -120 -193 -136 -272 -6 -32 -16 -60 -21 -63 -5 -4 -9 -48 -9 -100 0 -52 4
-96 9 -100 5 -3 15 -31 21 -63 36 -172 173 -350 340 -439 111 -60 170 -73 325
-73 118 0 152 4 206 22 217 73 373 228 451 448 19 56 23 85 23 205 0 120 -4
149 -23 205 -80 225 -251 390 -473 456 -26 8 -51 19 -54 24 -9 14 -252 13
-257 -1z m475 -235 c20 -6 23 -39 5 -51 -7 -4 -38 -10 -68 -13 l-55 -5 -7 -74
c-10 -95 -38 -144 -123 -210 -38 -30 -67 -62 -71 -76 -10 -40 14 -82 61 -110
84 -49 135 -140 135 -241 0 -47 9 -54 68 -54 36 0 72 -23 72 -47 0 -11 -65
-13 -359 -13 -243 0 -362 3 -366 11 -13 20 26 49 65 49 21 0 42 6 47 13 6 6
13 41 17 76 8 80 38 136 96 177 145 103 145 135 0 238 -58 41 -88 97 -96 177
-8 77 -16 89 -61 89 -60 0 -90 29 -62 57 8 8 110 12 348 12 185 0 344 -3 354
-5z"/>
</g>
</svg>
